<svg xmlns="http://www.w3.org/2000/svg" viewBox="0 0 64 64"><rect width="64" height="64" rx="14" fill="#ffffff"/><svg x="7" y="7" width="50" height="50" viewBox="0 0 50 50" aria-hidden="true"><defs><linearGradient id="hmig" x1="0" y1="0" x2="50" y2="50" gradientUnits="userSpaceOnUse"><stop offset="0" stop-color="#005AFF"/><stop offset="1" stop-color="#005AFF"/></linearGradient></defs><rect x="11.5" y="1.5" width="7" height="7" rx="1.8" fill="none" stroke="#999999" stroke-opacity=".25" stroke-width="1"/><rect x="21.5" y="1.5" width="7" height="7" rx="1.8" fill="none" stroke="#999999" stroke-opacity=".25" stroke-width="1"/><rect x="31.5" y="1.5" width="7" height="7" rx="1.8" fill="none" stroke="#999999" stroke-opacity=".25" stroke-width="1"/><rect x="11.5" y="11.5" width="7" height="7" rx="1.8" fill="none" stroke="#999999" stroke-opacity=".25" stroke-width="1"/><rect x="21.5" y="11.5" width="7" height="7" rx="1.8" fill="none" stroke="#999999" stroke-opacity=".25" stroke-width="1"/><rect x="31.5" y="11.5" width="7" height="7" rx="1.8" fill="none" stroke="#999999" stroke-opacity=".25" stroke-width="1"/><rect x="11.5" y="21.5" width="7" height="7" rx="1.8" fill="none" stroke="#999999" stroke-opacity=".25" stroke-width="1"/><rect x="31.5" y="21.5" width="7" height="7" rx="1.8" fill="none" stroke="#999999" stroke-opacity=".25" stroke-width="1"/><rect x="11.5" y="31.5" width="7" height="7" rx="1.8" fill="none" stroke="#999999" stroke-opacity=".25" stroke-width="1"/><rect x="21.5" y="31.5" width="7" height="7" rx="1.8" fill="none" stroke="#999999" stroke-opacity=".25" stroke-width="1"/><rect x="31.5" y="31.5" width="7" height="7" rx="1.8" fill="none" stroke="#999999" stroke-opacity=".25" stroke-width="1"/><rect x="11.5" y="41.5" width="7" height="7" rx="1.8" fill="none" stroke="#999999" stroke-opacity=".25" stroke-width="1"/><rect x="21.5" y="41.5" width="7" height="7" rx="1.8" fill="none" stroke="#999999" stroke-opacity=".25" stroke-width="1"/><rect x="31.5" y="41.5" width="7" height="7" rx="1.8" fill="none" stroke="#999999" stroke-opacity=".25" stroke-width="1"/><rect x="1" y="1" width="8" height="8" rx="2" fill="url(#hmig)"/><rect x="41" y="1" width="8" height="8" rx="2" fill="url(#hmig)"/><rect x="1" y="11" width="8" height="8" rx="2" fill="url(#hmig)"/><rect x="41" y="11" width="8" height="8" rx="2" fill="url(#hmig)"/><rect x="1" y="21" width="8" height="8" rx="2" fill="url(#hmig)"/><rect x="11" y="21" width="8" height="8" rx="2" fill="url(#hmig)"/><rect x="21" y="21" width="8" height="8" rx="2" fill="url(#hmig)"/><rect x="31" y="21" width="8" height="8" rx="2" fill="url(#hmig)"/><rect x="41" y="21" width="8" height="8" rx="2" fill="url(#hmig)"/><rect x="1" y="31" width="8" height="8" rx="2" fill="url(#hmig)"/><rect x="41" y="31" width="8" height="8" rx="2" fill="url(#hmig)"/><rect x="1" y="41" width="8" height="8" rx="2" fill="url(#hmig)"/><rect x="41" y="41" width="8" height="8" rx="2" fill="url(#hmig)"/></svg></svg>